G04*
G04 #@! TF.GenerationSoftware,Altium Limited,Altium Designer,23.2.1 (34)*
G04*
G04 Layer_Color=8421504*
%FSLAX44Y44*%
%MOMM*%
G71*
G04*
G04 #@! TF.SameCoordinates,6051E094-9B17-4579-A263-E95DDA6BD904*
G04*
G04*
G04 #@! TF.FilePolarity,Positive*
G04*
G01*
G75*
%ADD19R,1.2700X1.3970*%
%ADD20R,2.5000X5.1000*%
%ADD21R,1.3970X1.2700*%
%ADD22R,1.8000X1.8000*%
%ADD23R,0.9500X0.8000*%
%ADD24R,1.2000X0.8000*%
%ADD25R,0.8000X0.9500*%
%ADD26R,0.8000X0.8000*%
D19*
X500380Y564642D02*
D03*
X523240D02*
D03*
X498856Y518922D02*
D03*
X521716D02*
D03*
X554736Y374142D02*
D03*
X531876D02*
D03*
D20*
X551796Y480568D02*
D03*
X780796D02*
D03*
D21*
X953262Y512064D02*
D03*
Y534924D02*
D03*
X424180Y485140D02*
D03*
Y508000D02*
D03*
X953262Y395986D02*
D03*
Y373126D02*
D03*
X726567Y358140D02*
D03*
Y335280D02*
D03*
X424688Y396748D02*
D03*
Y373888D02*
D03*
D22*
X880380Y565928D02*
D03*
Y504428D02*
D03*
X818880D02*
D03*
Y565928D02*
D03*
D23*
X952500Y414274D02*
D03*
Y428274D02*
D03*
Y490616D02*
D03*
Y476616D02*
D03*
X424942Y418704D02*
D03*
Y432704D02*
D03*
Y527670D02*
D03*
Y541670D02*
D03*
X573278Y347920D02*
D03*
Y361920D02*
D03*
D24*
X555700Y342646D02*
D03*
X485700D02*
D03*
D25*
X501030Y373888D02*
D03*
X487030D02*
D03*
D26*
X590042Y330454D02*
D03*
X574042D02*
D03*
M02*
