M48
;Layer_Color=9474304
;FILE_FORMAT=2:4
INCH,LZ
;TYPE=PLATED
T1F00S00C0.0118
T2F00S00C0.0280
T3F00S00C0.0300
T4F00S00C0.0310
T5F00S00C0.0320
T6F00S00C0.0350
T7F00S00C0.0360
%
T01
X012Y012
X013
X0125Y013
X013Y014
X014
X015
X0155Y013
X0145
X0165
X0175
X017Y014
X016
X02
X0205Y013
X0195
X022Y014
X0245Y015
X0255
X0265
X0275
X027Y014
X026
X0255Y013
X0295Y015
X0305
X031Y014
X032
X033
X0335Y015
X0345
X0365
X037Y014
X038
X039
X04
X041
X042
X0415Y013
X0405
X0395
X0385
X0375
X0365
X0355
X036Y012
X037
X038
X039
X04
X041
X042
X035
X0335Y013
X0325
X0315
Y015
X0325
X033Y018
X035
X037
X038
X039
X04
X041
Y02
X04
X039
Y022
X04
X041
X0405Y023
X0395
X0385
X0375
X0365
X0355
X0345
X0335
X0325
X033Y022
Y02
X0355Y021
X0365
X037Y022
X038
Y016
X037
X04
X041
X031
X0305Y017
X03Y018
X031Y022
X0195Y023
X0185
X0175
X0165
X017Y022
X016
X0175Y021
Y019
X0185
X017Y018
X016
X0175Y017
X02Y016
X022
X024
X015
X014
X013
X0125Y017
X013Y018
X014
X015
Y02
X014
X013
X0125Y021
X012Y022
X0125Y023
X0145
X0155
X015Y022
X014
T02
X02139Y01297
X02094Y01548
X02324Y01447
X025025Y014775
X03324Y01614
X0338Y01663
X031572Y022739
X0301Y01629
X02921Y01631
X020595Y01793
X01988Y01886
X01989Y01966
X01885Y01863
T03
X01961Y021242
X020572
T04
X0131Y01476
X0156
X03863
X04113
Y01676
X04116Y01919
Y02119
X03866
Y01919
X03863Y01676
X0156
Y01916
Y02116
X0131
Y01916
Y01676
T05
X03008Y013175
Y014175
X03279Y01864
X03379
X03479
T06
X018Y0132
Y0142
Y0152
X02422Y013095
X02772
X036Y0132
Y0142
Y0152
Y0162
Y0172
Y0182
Y0192
Y0202
Y0212
Y0222
X018
Y0212
Y0202
Y0192
Y0182
Y0172
Y0162
T07
X03181Y01556
X03282
X0338
X03481
M30
