G04*
G04 #@! TF.GenerationSoftware,Altium Limited,Altium Designer,23.2.1 (34)*
G04*
G04 Layer_Color=65535*
%FSLAX44Y44*%
%MOMM*%
G71*
G04*
G04 #@! TF.SameCoordinates,6051E094-9B17-4579-A263-E95DDA6BD904*
G04*
G04*
G04 #@! TF.FilePolarity,Positive*
G04*
G01*
G75*
%ADD10C,0.1524*%
%ADD11C,0.1778*%
%ADD12C,0.2000*%
%ADD13C,0.1016*%
%ADD14C,0.1270*%
%ADD15C,0.1000*%
%ADD16C,0.2540*%
%ADD17R,0.5080X2.5400*%
%ADD18R,2.5400X1.2700*%
G36*
X742696Y360045D02*
X754380D01*
X754888Y363093D01*
X755904Y365633D01*
X757174Y367411D01*
X759206Y368681D01*
X761492Y369443D01*
X764032Y369697D01*
X766572Y369443D01*
X768350Y368681D01*
X770128Y367411D01*
X771906Y365887D01*
X772922Y364363D01*
X773684Y361823D01*
Y360045D01*
X785622D01*
X783844Y362077D01*
X781558Y365125D01*
X779018Y367157D01*
X775208Y369443D01*
X768858Y371221D01*
X761746Y371729D01*
X753872Y369951D01*
X748792Y366903D01*
X743966Y362585D01*
X742696Y360045D01*
D02*
G37*
G36*
X884174Y409448D02*
X890524Y415798D01*
X877824D01*
X884174Y409448D01*
D02*
G37*
D10*
X377190Y513334D02*
G03*
X377190Y513334I-12700J0D01*
G01*
Y401574D02*
G03*
X377190Y401574I-12700J0D01*
G01*
X1025652D02*
G03*
X1025652Y401574I-12700J0D01*
G01*
X1026414Y511556D02*
G03*
X1026414Y511556I-12700J0D01*
G01*
X336550Y499364D02*
Y523494D01*
X344424Y486664D02*
X383540D01*
X393700Y499364D02*
Y523494D01*
X344170Y537464D02*
X383540D01*
X344170Y425704D02*
X383540D01*
X393700Y387604D02*
Y411734D01*
X344424Y374904D02*
X383540D01*
X336550Y387604D02*
Y411734D01*
X985012Y387604D02*
Y411734D01*
X992886Y374904D02*
X1032002D01*
X1042162Y387604D02*
Y411734D01*
X992632Y425704D02*
X1032002D01*
X994664Y487426D02*
X1034034D01*
X984504Y501396D02*
Y525526D01*
X994664Y538226D02*
X1033780D01*
X1041654Y501396D02*
Y525526D01*
D11*
X827801Y463303D02*
G03*
X887863Y462480I30219J13309D01*
G01*
X789432Y346477D02*
G03*
X789432Y346477I-25400J0D01*
G01*
X634238Y332613D02*
Y345313D01*
X685038D01*
Y319913D02*
Y345313D01*
X634238Y319913D02*
X685038D01*
X634238D02*
Y332613D01*
X685038D02*
X692658D01*
X626618D02*
X634238D01*
X644652Y319913D02*
Y344551D01*
X634238Y332613D02*
Y337947D01*
Y328549D02*
Y332613D01*
X393446Y482854D02*
X393700Y483108D01*
X393446Y371094D02*
X393700Y371348D01*
X1041908Y371094D02*
X1042162Y371348D01*
X795274Y346964D02*
Y382524D01*
Y346964D02*
X896874D01*
Y382524D01*
X795274Y407924D02*
X896874D01*
Y382524D02*
Y407924D01*
X795274Y382524D02*
X896874D01*
X795274D02*
Y407924D01*
X872744Y382778D02*
Y407924D01*
X831596Y489966D02*
X883158D01*
X828294Y483362D02*
X831596Y489966D01*
X883158D02*
X887562Y483676D01*
X984504Y541782D02*
X984758Y542036D01*
X748792Y332105D02*
Y337185D01*
X746252Y334645D02*
X751332D01*
D12*
X479900Y563880D02*
G03*
X479900Y563880I-1000J0D01*
G01*
X937100D02*
G03*
X937100Y563880I-1000J0D01*
G01*
D13*
X507492Y558292D02*
X516128D01*
X507492Y570992D02*
X516128D01*
X959612Y519176D02*
Y527812D01*
X946912Y519176D02*
Y527812D01*
X505968Y512572D02*
X514604D01*
X505968Y525272D02*
X514604D01*
X430530Y492252D02*
Y500888D01*
X417830Y492252D02*
Y500888D01*
X946912Y380238D02*
Y388874D01*
X959612Y380238D02*
Y388874D01*
X538988Y380492D02*
X547624D01*
X538988Y367792D02*
X547624D01*
X720217Y342392D02*
Y351028D01*
X732917Y342392D02*
Y351028D01*
X418338Y381000D02*
Y389636D01*
X431038Y381000D02*
Y389636D01*
D14*
X492506Y573278D02*
X531368D01*
X492506Y556260D02*
Y573278D01*
Y556260D02*
X531368D01*
Y573278D01*
X560796Y509268D02*
Y560068D01*
X611296D01*
X721296D02*
X771796D01*
Y509268D02*
Y560068D01*
X560796Y405068D02*
Y451868D01*
Y405068D02*
X606296D01*
X726296D02*
X771796D01*
Y451868D01*
X487733Y528627D02*
X532437D01*
X487733Y550725D02*
X532437D01*
Y528627D02*
Y550725D01*
X487733Y528627D02*
Y550725D01*
X944880Y503936D02*
X961898D01*
X944880D02*
Y542798D01*
X961898D01*
Y503936D02*
Y542798D01*
X887130Y518178D02*
Y552178D01*
X812130Y518178D02*
Y552178D01*
X832630Y497678D02*
X866630D01*
X832630Y572678D02*
X866630D01*
X490982Y527558D02*
X529844D01*
X490982Y510540D02*
Y527558D01*
Y510540D02*
X529844D01*
Y527558D01*
X415544Y477266D02*
Y516128D01*
Y477266D02*
X432562D01*
Y516128D01*
X415544D02*
X432562D01*
X445500Y574550D02*
X468900D01*
Y324610D02*
Y574550D01*
X445500Y324610D02*
X468900D01*
X445500D02*
Y574550D01*
X944626Y404114D02*
X961644D01*
Y365252D02*
Y404114D01*
X944626Y365252D02*
X961644D01*
X944626D02*
Y404114D01*
X960120Y407812D02*
Y434482D01*
X944880Y407812D02*
X960120D01*
X944880D02*
Y434482D01*
X960120D01*
X944880Y470408D02*
Y497078D01*
X960120D01*
Y470408D02*
Y497078D01*
X944880Y470408D02*
X960120D01*
X562864Y365760D02*
Y382778D01*
X524002Y365760D02*
X562864D01*
X524002D02*
Y382778D01*
X562864D01*
X735203Y327152D02*
Y366014D01*
X718185D02*
X735203D01*
X718185Y327152D02*
Y366014D01*
Y327152D02*
X735203D01*
X416052Y404876D02*
X433070D01*
Y366014D02*
Y404876D01*
X416052Y366014D02*
X433070D01*
X416052D02*
Y404876D01*
X432562Y412242D02*
Y438912D01*
X417322Y412242D02*
X432562D01*
X417322D02*
Y438912D01*
X432562D01*
Y521208D02*
Y547878D01*
X417322Y521208D02*
X432562D01*
X417322D02*
Y547878D01*
X432562D01*
X902700Y324610D02*
Y574550D01*
Y324610D02*
X926100D01*
Y574550D01*
X902700D02*
X926100D01*
X507238Y366268D02*
Y381508D01*
X480568D02*
X507238D01*
X480568Y366268D02*
Y381508D01*
Y366268D02*
X507238D01*
X565658Y341712D02*
X580898D01*
Y368382D01*
X565658D02*
X580898D01*
X565658Y341712D02*
Y368382D01*
X585852Y336804D02*
X597282D01*
X568072D02*
X578232D01*
X585852Y324104D02*
X597282D01*
X568072D02*
X578232D01*
X565532Y326644D02*
Y334264D01*
Y326644D02*
X568072Y324104D01*
X565532Y334264D02*
X568072Y336804D01*
X597282Y324104D02*
Y336804D01*
D15*
X948690Y419242D02*
Y423052D01*
X956310Y419242D02*
Y423052D01*
Y481838D02*
Y485648D01*
X948690Y481838D02*
Y485648D01*
X421132Y423672D02*
Y427482D01*
X428752Y423672D02*
Y427482D01*
X421132Y532638D02*
Y536448D01*
X428752Y532638D02*
Y536448D01*
X491998Y370078D02*
X495808D01*
X491998Y377698D02*
X495808D01*
X569468Y353142D02*
Y356952D01*
X577088Y353142D02*
Y356952D01*
D16*
X548894Y324104D02*
Y335534D01*
Y349758D02*
Y361188D01*
X492506D02*
X548894D01*
X492506Y324104D02*
X548894D01*
X508000Y336296D02*
X533400D01*
X508000D02*
Y348996D01*
X533400D01*
Y336296D02*
Y348996D01*
X492506Y324104D02*
Y335534D01*
Y349758D02*
Y361188D01*
X828293Y582328D02*
Y576911D01*
X885443Y584328D02*
Y578911D01*
X888151Y581619D02*
X882734D01*
X573278Y319908D02*
Y304673D01*
X580896D01*
X583435Y307212D01*
Y317369D01*
X580896Y319908D01*
X573278D01*
X588513Y304673D02*
X593591D01*
X591052D01*
Y319908D01*
X588513Y317369D01*
X651640Y367155D02*
Y351920D01*
X659258D01*
X661797Y354459D01*
Y364615D01*
X659258Y367155D01*
X651640D01*
X666875Y351920D02*
X671954D01*
X669415D01*
Y367155D01*
X666875Y364615D01*
X811094Y464704D02*
Y474860D01*
X808555Y477400D01*
X803476D01*
X800937Y474860D01*
Y464704D01*
X803476Y462164D01*
X808555D01*
X806016Y467243D02*
X811094Y462164D01*
X808555D02*
X811094Y464704D01*
X816172Y462164D02*
X821251D01*
X818712D01*
Y477400D01*
X816172Y474860D01*
X510413Y594231D02*
X507874Y596771D01*
X502795D01*
X500256Y594231D01*
Y584075D01*
X502795Y581535D01*
X507874D01*
X510413Y584075D01*
X515491Y581535D02*
X520570D01*
X518031D01*
Y596771D01*
X515491Y594231D01*
X514096Y314450D02*
X511557Y316989D01*
X506479D01*
X503939Y314450D01*
Y311911D01*
X506479Y309372D01*
X511557D01*
X514096Y306833D01*
Y304294D01*
X511557Y301754D01*
X506479D01*
X503939Y304294D01*
X519174Y301754D02*
X524253D01*
X521714D01*
Y316989D01*
X519174Y314450D01*
X1001017Y355471D02*
X998478Y358010D01*
X993400D01*
X990861Y355471D01*
Y352932D01*
X993400Y350393D01*
X998478D01*
X1001017Y347854D01*
Y345315D01*
X998478Y342775D01*
X993400D01*
X990861Y345315D01*
X1006096Y358010D02*
Y342775D01*
X1011174Y347854D01*
X1016252Y342775D01*
Y358010D01*
X1028948Y342775D02*
Y358010D01*
X1021331Y350393D01*
X1031487D01*
X1003303Y467358D02*
X1000764Y469897D01*
X995686D01*
X993147Y467358D01*
Y464819D01*
X995686Y462280D01*
X1000764D01*
X1003303Y459741D01*
Y457202D01*
X1000764Y454663D01*
X995686D01*
X993147Y457202D01*
X1008382Y469897D02*
Y454663D01*
X1013460Y459741D01*
X1018538Y454663D01*
Y469897D01*
X1023617Y467358D02*
X1026156Y469897D01*
X1031234D01*
X1033773Y467358D01*
Y464819D01*
X1031234Y462280D01*
X1028695D01*
X1031234D01*
X1033773Y459741D01*
Y457202D01*
X1031234Y454663D01*
X1026156D01*
X1023617Y457202D01*
X356619Y453007D02*
X354080Y455546D01*
X349002D01*
X346463Y453007D01*
Y450468D01*
X349002Y447929D01*
X354080D01*
X356619Y445390D01*
Y442851D01*
X354080Y440312D01*
X349002D01*
X346463Y442851D01*
X361698Y455546D02*
Y440312D01*
X366776Y445390D01*
X371854Y440312D01*
Y455546D01*
X387089Y440312D02*
X376933D01*
X387089Y450468D01*
Y453007D01*
X384550Y455546D01*
X379472D01*
X376933Y453007D01*
X351665Y564386D02*
X349126Y566926D01*
X344048D01*
X341509Y564386D01*
Y561847D01*
X344048Y559308D01*
X349126D01*
X351665Y556769D01*
Y554230D01*
X349126Y551690D01*
X344048D01*
X341509Y554230D01*
X356744Y566926D02*
Y551690D01*
X361822Y556769D01*
X366901Y551690D01*
Y566926D01*
X371979Y551690D02*
X377057D01*
X374518D01*
Y566926D01*
X371979Y564386D01*
X537213Y548383D02*
Y533148D01*
Y538227D01*
X547370Y548383D01*
X539753Y540766D01*
X547370Y533148D01*
X552448D02*
X557527D01*
X554988D01*
Y548383D01*
X552448Y545844D01*
X546355Y523238D02*
X543816Y525778D01*
X538737D01*
X536198Y523238D01*
Y513082D01*
X538737Y510542D01*
X543816D01*
X546355Y513082D01*
X561590Y525778D02*
X556511Y523238D01*
X551433Y518160D01*
Y513082D01*
X553972Y510542D01*
X559051D01*
X561590Y513082D01*
Y515621D01*
X559051Y518160D01*
X551433D01*
X761747Y392047D02*
X759208Y394586D01*
X754129D01*
X751590Y392047D01*
Y381891D01*
X754129Y379352D01*
X759208D01*
X761747Y381891D01*
X774443Y379352D02*
Y394586D01*
X766825Y386969D01*
X776982D01*
X722377Y392936D02*
X719838Y395476D01*
X714759D01*
X712220Y392936D01*
Y382780D01*
X714759Y380241D01*
X719838D01*
X722377Y382780D01*
X737612Y380241D02*
X727455D01*
X737612Y390397D01*
Y392936D01*
X735073Y395476D01*
X729994D01*
X727455Y392936D01*
X648214Y490979D02*
Y475745D01*
X655831D01*
X658371Y478284D01*
Y480823D01*
X655831Y483362D01*
X648214D01*
X655831D01*
X658371Y485901D01*
Y488440D01*
X655831Y490979D01*
X648214D01*
X663449D02*
X673606D01*
X668527D01*
Y475745D01*
X678684D02*
X683762D01*
X681223D01*
Y490979D01*
X678684Y488440D01*
X836301Y602486D02*
Y587251D01*
X846458D01*
X861693Y599946D02*
X859153Y602486D01*
X854075D01*
X851536Y599946D01*
Y597407D01*
X854075Y594868D01*
X859153D01*
X861693Y592329D01*
Y589790D01*
X859153Y587251D01*
X854075D01*
X851536Y589790D01*
X866771Y587251D02*
X871849D01*
X869310D01*
Y602486D01*
X866771Y599946D01*
X455419Y600197D02*
X450340D01*
X452879D01*
Y587501D01*
X450340Y584962D01*
X447801D01*
X445262Y587501D01*
X460497Y584962D02*
X465575D01*
X463036D01*
Y600197D01*
X460497Y597658D01*
X943360Y437391D02*
Y452626D01*
X950978D01*
X953517Y450086D01*
Y445008D01*
X950978Y442469D01*
X943360D01*
X948438D02*
X953517Y437391D01*
X958595Y439930D02*
X961134Y437391D01*
X966213D01*
X968752Y439930D01*
Y450086D01*
X966213Y452626D01*
X961134D01*
X958595Y450086D01*
Y447547D01*
X961134Y445008D01*
X968752D01*
X943360Y455424D02*
Y470659D01*
X950978D01*
X953517Y468120D01*
Y463042D01*
X950978Y460503D01*
X943360D01*
X948438D02*
X953517Y455424D01*
X958595Y468120D02*
X961134Y470659D01*
X966213D01*
X968752Y468120D01*
Y465581D01*
X966213Y463042D01*
X968752Y460503D01*
Y457964D01*
X966213Y455424D01*
X961134D01*
X958595Y457964D01*
Y460503D01*
X961134Y463042D01*
X958595Y465581D01*
Y468120D01*
X961134Y463042D02*
X966213D01*
X413770Y443599D02*
Y458834D01*
X421388D01*
X423927Y456294D01*
Y451216D01*
X421388Y448677D01*
X413770D01*
X418848D02*
X423927Y443599D01*
X429005Y458834D02*
X439162D01*
Y456294D01*
X429005Y446138D01*
Y443599D01*
X410468Y553596D02*
Y568830D01*
X418086D01*
X420625Y566291D01*
Y561213D01*
X418086Y558674D01*
X410468D01*
X415546D02*
X420625Y553596D01*
X435860Y568830D02*
X430782Y566291D01*
X425703Y561213D01*
Y556135D01*
X428242Y553596D01*
X433321D01*
X435860Y556135D01*
Y558674D01*
X433321Y561213D01*
X425703D01*
X482600Y389636D02*
Y404871D01*
X490218D01*
X492757Y402332D01*
Y397253D01*
X490218Y394714D01*
X482600D01*
X487678D02*
X492757Y389636D01*
X497835D02*
X502913D01*
X500374D01*
Y404871D01*
X497835Y402332D01*
X577727Y377954D02*
Y393190D01*
X585345D01*
X587884Y390650D01*
Y385572D01*
X585345Y383033D01*
X577727D01*
X582805D02*
X587884Y377954D01*
X603119Y393190D02*
X592962D01*
Y385572D01*
X598041Y388111D01*
X600580D01*
X603119Y385572D01*
Y380494D01*
X600580Y377954D01*
X595501D01*
X592962Y380494D01*
X800484Y416436D02*
Y431670D01*
X808102D01*
X810641Y429131D01*
Y424053D01*
X808102Y421514D01*
X800484D01*
X815719Y416436D02*
X820798D01*
X818259D01*
Y431670D01*
X815719Y429131D01*
X912619Y600197D02*
X907540D01*
X910079D01*
Y587501D01*
X907540Y584962D01*
X905001D01*
X902462Y587501D01*
X927854Y584962D02*
X917697D01*
X927854Y595119D01*
Y597658D01*
X925315Y600197D01*
X920236D01*
X917697Y597658D01*
X557400Y322836D02*
Y338072D01*
X549782D01*
X547243Y335532D01*
Y325376D01*
X549782Y322836D01*
X557400D01*
X532008Y338072D02*
X542165D01*
X532008Y327915D01*
Y325376D01*
X534547Y322836D01*
X539626D01*
X542165Y325376D01*
X947169Y357630D02*
X944630Y360169D01*
X939551D01*
X937012Y357630D01*
Y347474D01*
X939551Y344935D01*
X944630D01*
X947169Y347474D01*
X952247Y344935D02*
X957326D01*
X954786D01*
Y360169D01*
X952247Y357630D01*
X964943D02*
X967482Y360169D01*
X972561D01*
X975100Y357630D01*
Y347474D01*
X972561Y344935D01*
X967482D01*
X964943Y347474D01*
Y357630D01*
X951993Y564767D02*
X949454Y567307D01*
X944375D01*
X941836Y564767D01*
Y554611D01*
X944375Y552071D01*
X949454D01*
X951993Y554611D01*
X957071D02*
X959610Y552071D01*
X964689D01*
X967228Y554611D01*
Y564767D01*
X964689Y567307D01*
X959610D01*
X957071Y564767D01*
Y562228D01*
X959610Y559689D01*
X967228D01*
X424181Y357122D02*
X421642Y359661D01*
X416563D01*
X414024Y357122D01*
Y346966D01*
X416563Y344426D01*
X421642D01*
X424181Y346966D01*
X429259Y357122D02*
X431798Y359661D01*
X436877D01*
X439416Y357122D01*
Y354583D01*
X436877Y352044D01*
X439416Y349505D01*
Y346966D01*
X436877Y344426D01*
X431798D01*
X429259Y346966D01*
Y349505D01*
X431798Y352044D01*
X429259Y354583D01*
Y357122D01*
X431798Y352044D02*
X436877D01*
X423927Y471803D02*
X421388Y474342D01*
X416309D01*
X413770Y471803D01*
Y461647D01*
X416309Y459108D01*
X421388D01*
X423927Y461647D01*
X429005Y474342D02*
X439162D01*
Y471803D01*
X429005Y461647D01*
Y459108D01*
X545974Y401953D02*
X543435Y404492D01*
X538356D01*
X535817Y401953D01*
Y391797D01*
X538356Y389258D01*
X543435D01*
X545974Y391797D01*
X561209Y404492D02*
X551052D01*
Y396875D01*
X556130Y399414D01*
X558670D01*
X561209Y396875D01*
Y391797D01*
X558670Y389258D01*
X553591D01*
X551052Y391797D01*
D17*
X636778Y332613D02*
D03*
D18*
X520700Y342646D02*
D03*
M02*
