G04*
G04 #@! TF.GenerationSoftware,Altium Limited,Altium Designer,23.2.1 (34)*
G04*
G04 Layer_Color=32896*
%FSLAX44Y44*%
%MOMM*%
G71*
G04*
G04 #@! TF.SameCoordinates,6051E094-9B17-4579-A263-E95DDA6BD904*
G04*
G04*
G04 #@! TF.FilePolarity,Positive*
G04*
G01*
G75*
%ADD12C,0.2000*%
%ADD13C,0.1016*%
%ADD14C,0.1270*%
%ADD15C,0.1000*%
%ADD16C,0.2540*%
D12*
X621712Y460718D02*
G03*
X621712Y460718I-1500J0D01*
G01*
D13*
X732790Y540766D02*
Y549402D01*
X745490Y540766D02*
Y549402D01*
X599948Y429514D02*
X608584D01*
X599948Y416814D02*
X608584D01*
X879094Y367792D02*
X887730D01*
X879094Y355092D02*
X887730D01*
X747776Y445770D02*
Y454406D01*
X735076Y445770D02*
Y454406D01*
X642366Y417576D02*
X651002D01*
X642366Y430276D02*
X651002D01*
X582930Y480568D02*
X591566D01*
X582930Y493268D02*
X591566D01*
D14*
X730504Y525526D02*
X747522D01*
Y564388D01*
X730504D02*
X747522D01*
X730504Y525526D02*
Y564388D01*
X584708Y414782D02*
Y431800D01*
Y414782D02*
X623570D01*
Y431800D01*
X584708D02*
X623570D01*
X863854Y353060D02*
Y370078D01*
Y353060D02*
X902716D01*
Y370078D01*
X863854D02*
X902716D01*
X807974Y464820D02*
Y491490D01*
Y464820D02*
X823214D01*
Y491490D01*
X807974D02*
X823214D01*
X877570Y429514D02*
X904240D01*
Y444754D01*
X877570D02*
X904240D01*
X877570Y429514D02*
Y444754D01*
X671322Y406908D02*
X686562D01*
X671322D02*
Y433578D01*
X686562D01*
Y406908D02*
Y433578D01*
X733044Y469646D02*
X750062D01*
X733044Y430784D02*
Y469646D01*
Y430784D02*
X750062D01*
Y469646D01*
X644212Y454217D02*
X648112D01*
X644212D02*
Y458117D01*
Y522318D02*
Y526217D01*
X648112D01*
X712312D02*
X716212D01*
Y522318D02*
Y526217D01*
Y454217D02*
Y458117D01*
X712312Y454217D02*
X716212D01*
X666242Y415290D02*
Y432308D01*
X627380D02*
X666242D01*
X627380Y415290D02*
Y432308D01*
Y415290D02*
X666242D01*
X606806Y478282D02*
Y495300D01*
X567944D02*
X606806D01*
X567944Y478282D02*
Y495300D01*
Y478282D02*
X606806D01*
D15*
X819404Y476250D02*
Y480060D01*
X811784Y476250D02*
Y480060D01*
X889000Y440944D02*
X892810D01*
X889000Y433324D02*
X892810D01*
X682752Y418338D02*
Y422148D01*
X675132Y418338D02*
Y422148D01*
D16*
X898521Y407799D02*
Y423035D01*
X890903D01*
X888364Y420495D01*
Y415417D01*
X890903Y412878D01*
X898521D01*
X893443D02*
X888364Y407799D01*
X883286Y420495D02*
X880747Y423035D01*
X875668D01*
X873129Y420495D01*
Y417956D01*
X875668Y415417D01*
X878207D01*
X875668D01*
X873129Y412878D01*
Y410339D01*
X875668Y407799D01*
X880747D01*
X883286Y410339D01*
X716403Y409324D02*
Y424558D01*
X708785D01*
X706246Y422019D01*
Y416941D01*
X708785Y414402D01*
X716403D01*
X711324D02*
X706246Y409324D01*
X691011D02*
X701168D01*
X691011Y419480D01*
Y422019D01*
X693550Y424558D01*
X698629D01*
X701168Y422019D01*
X613280Y404620D02*
X615819Y407160D01*
X620898D01*
X623437Y404620D01*
Y394464D01*
X620898Y391925D01*
X615819D01*
X613280Y394464D01*
X608202Y391925D02*
X603123D01*
X605663D01*
Y407160D01*
X608202Y404620D01*
X585349Y407160D02*
X595506D01*
Y399542D01*
X590428Y402081D01*
X587888D01*
X585349Y399542D01*
Y394464D01*
X587888Y391925D01*
X592967D01*
X595506Y394464D01*
X780666Y553464D02*
X783205Y556003D01*
X788284D01*
X790823Y553464D01*
Y543308D01*
X788284Y540769D01*
X783205D01*
X780666Y543308D01*
X775588Y540769D02*
X770509D01*
X773049D01*
Y556003D01*
X775588Y553464D01*
X752735Y540769D02*
X762892D01*
X752735Y550925D01*
Y553464D01*
X755274Y556003D01*
X760353D01*
X762892Y553464D01*
X593723Y470279D02*
X596262Y472818D01*
X601340D01*
X603880Y470279D01*
Y460123D01*
X601340Y457584D01*
X596262D01*
X593723Y460123D01*
X588645Y457584D02*
X583566D01*
X586105D01*
Y472818D01*
X588645Y470279D01*
X575949Y457584D02*
X570870D01*
X573410D01*
Y472818D01*
X575949Y470279D01*
X687829Y496819D02*
Y484123D01*
X685290Y481584D01*
X680211D01*
X677672Y484123D01*
Y496819D01*
X672594Y481584D02*
X667515D01*
X670054D01*
Y496819D01*
X672594Y494280D01*
X799588Y470919D02*
Y486153D01*
X791970D01*
X789431Y483614D01*
Y478536D01*
X791970Y475997D01*
X799588D01*
X794510D02*
X789431Y470919D01*
X776735D02*
Y486153D01*
X784353Y478536D01*
X774196D01*
X880109Y343914D02*
X882648Y346454D01*
X887727D01*
X890266Y343914D01*
Y333758D01*
X887727Y331218D01*
X882648D01*
X880109Y333758D01*
X875031Y343914D02*
X872492Y346454D01*
X867413D01*
X864874Y343914D01*
Y341375D01*
X867413Y338836D01*
X869952D01*
X867413D01*
X864874Y336297D01*
Y333758D01*
X867413Y331218D01*
X872492D01*
X875031Y333758D01*
X657857Y406144D02*
X660396Y408684D01*
X665475D01*
X668014Y406144D01*
Y395988D01*
X665475Y393448D01*
X660396D01*
X657857Y395988D01*
X652779Y393448D02*
X647700D01*
X650240D01*
Y408684D01*
X652779Y406144D01*
X632465Y393448D02*
Y408684D01*
X640083Y401066D01*
X629926D01*
X786254Y455166D02*
X788793Y457705D01*
X793872D01*
X796411Y455166D01*
Y445010D01*
X793872Y442471D01*
X788793D01*
X786254Y445010D01*
X781176Y442471D02*
X776097D01*
X778637D01*
Y457705D01*
X781176Y455166D01*
X768480D02*
X765941Y457705D01*
X760862D01*
X758323Y455166D01*
Y452627D01*
X760862Y450088D01*
X763401D01*
X760862D01*
X758323Y447549D01*
Y445010D01*
X760862Y442471D01*
X765941D01*
X768480Y445010D01*
M02*
