G04*
G04 #@! TF.GenerationSoftware,Altium Limited,Altium Designer,23.2.1 (34)*
G04*
G04 Layer_Color=128*
%FSLAX44Y44*%
%MOMM*%
G71*
G04*
G04 #@! TF.SameCoordinates,6051E094-9B17-4579-A263-E95DDA6BD904*
G04*
G04*
G04 #@! TF.FilePolarity,Positive*
G04*
G01*
G75*
%ADD19R,1.2700X1.3970*%
%ADD21R,1.3970X1.2700*%
%ADD23R,0.9500X0.8000*%
%ADD25R,0.8000X0.9500*%
G04:AMPARAMS|DCode=67|XSize=0.28mm|YSize=1.56mm|CornerRadius=0.07mm|HoleSize=0mm|Usage=FLASHONLY|Rotation=0.000|XOffset=0mm|YOffset=0mm|HoleType=Round|Shape=RoundedRectangle|*
%AMROUNDEDRECTD67*
21,1,0.2800,1.4200,0,0,0.0*
21,1,0.1400,1.5600,0,0,0.0*
1,1,0.1400,0.0700,-0.7100*
1,1,0.1400,-0.0700,-0.7100*
1,1,0.1400,-0.0700,0.7100*
1,1,0.1400,0.0700,0.7100*
%
%ADD67ROUNDEDRECTD67*%
G04:AMPARAMS|DCode=68|XSize=0.28mm|YSize=1.56mm|CornerRadius=0.07mm|HoleSize=0mm|Usage=FLASHONLY|Rotation=270.000|XOffset=0mm|YOffset=0mm|HoleType=Round|Shape=RoundedRectangle|*
%AMROUNDEDRECTD68*
21,1,0.2800,1.4200,0,0,270.0*
21,1,0.1400,1.5600,0,0,270.0*
1,1,0.1400,-0.7100,-0.0700*
1,1,0.1400,-0.7100,0.0700*
1,1,0.1400,0.7100,0.0700*
1,1,0.1400,0.7100,-0.0700*
%
%ADD68ROUNDEDRECTD68*%
D19*
X592836Y423164D02*
D03*
X615696D02*
D03*
X871982Y361442D02*
D03*
X894842D02*
D03*
X658114Y423926D02*
D03*
X635254D02*
D03*
X598678Y486918D02*
D03*
X575818D02*
D03*
D21*
X739140Y533654D02*
D03*
Y556514D02*
D03*
X741426Y461518D02*
D03*
Y438658D02*
D03*
D23*
X815594Y471282D02*
D03*
Y485282D02*
D03*
X678942Y413116D02*
D03*
Y427116D02*
D03*
D25*
X897778Y437134D02*
D03*
X883778D02*
D03*
D67*
X652712Y448418D02*
D03*
X657712D02*
D03*
X652712Y532018D02*
D03*
X657712D02*
D03*
X662712D02*
D03*
X667712D02*
D03*
X672712D02*
D03*
X677712D02*
D03*
X682712D02*
D03*
X687712D02*
D03*
X692712D02*
D03*
X697712D02*
D03*
X702712D02*
D03*
X707712D02*
D03*
Y448418D02*
D03*
X702712D02*
D03*
X697712D02*
D03*
X692712D02*
D03*
X687712D02*
D03*
X682712D02*
D03*
X677712D02*
D03*
X672712D02*
D03*
X667712D02*
D03*
X662712D02*
D03*
D68*
X638412Y462718D02*
D03*
Y467718D02*
D03*
Y472718D02*
D03*
Y477718D02*
D03*
Y482718D02*
D03*
Y487718D02*
D03*
Y492718D02*
D03*
Y497718D02*
D03*
Y502718D02*
D03*
Y507718D02*
D03*
Y512718D02*
D03*
Y517718D02*
D03*
X722012D02*
D03*
Y512718D02*
D03*
Y507718D02*
D03*
Y502718D02*
D03*
Y497718D02*
D03*
Y492718D02*
D03*
Y487718D02*
D03*
Y482718D02*
D03*
Y477718D02*
D03*
Y472718D02*
D03*
Y467718D02*
D03*
Y462718D02*
D03*
M02*
