G04*
G04 #@! TF.GenerationSoftware,Altium Limited,Altium Designer,23.2.1 (34)*
G04*
G04 Layer_Color=8388736*
%FSLAX44Y44*%
%MOMM*%
G71*
G04*
G04 #@! TF.SameCoordinates,6051E094-9B17-4579-A263-E95DDA6BD904*
G04*
G04*
G04 #@! TF.FilePolarity,Negative*
G04*
G01*
G75*
%ADD27R,1.4732X1.6002*%
%ADD28R,2.7032X5.3032*%
%ADD29C,18.0032*%
%ADD30R,1.6002X1.4732*%
%ADD31R,2.0032X2.0032*%
%ADD32R,1.1532X1.0032*%
%ADD33R,1.4032X1.0032*%
%ADD34R,1.0032X1.1532*%
%ADD35R,1.0032X1.0032*%
%ADD36R,1.7272X1.7272*%
%ADD37C,1.7272*%
%ADD38C,2.2352*%
%ADD39R,2.2352X2.2352*%
%ADD40R,2.1082X2.1082*%
%ADD41C,2.1082*%
%ADD42O,1.8542X2.1082*%
%ADD43O,1.8796X2.7432*%
%ADD44R,1.6002X1.6002*%
%ADD45C,1.6002*%
%ADD46O,2.7432X1.9812*%
%ADD47R,2.7432X1.9812*%
%ADD48C,0.7032*%
%ADD49C,1.4732*%
D27*
X500380Y564642D02*
D03*
X523240D02*
D03*
X498856Y518922D02*
D03*
X521716D02*
D03*
X554736Y374142D02*
D03*
X531876D02*
D03*
D28*
X551796Y480568D02*
D03*
X780796D02*
D03*
D29*
X666296D02*
D03*
D30*
X953262Y512064D02*
D03*
Y534924D02*
D03*
X424180Y485140D02*
D03*
Y508000D02*
D03*
X953262Y395986D02*
D03*
Y373126D02*
D03*
X726567Y358140D02*
D03*
Y335280D02*
D03*
X424688Y396748D02*
D03*
Y373888D02*
D03*
D31*
X880380Y565928D02*
D03*
Y504428D02*
D03*
X818880D02*
D03*
Y565928D02*
D03*
D32*
X952500Y414274D02*
D03*
Y428274D02*
D03*
Y490616D02*
D03*
Y476616D02*
D03*
X424942Y418704D02*
D03*
Y432704D02*
D03*
Y527670D02*
D03*
Y541670D02*
D03*
X573278Y347920D02*
D03*
Y361920D02*
D03*
D33*
X555700Y342646D02*
D03*
X485700D02*
D03*
D34*
X501030Y373888D02*
D03*
X487030D02*
D03*
D35*
X590042Y330454D02*
D03*
X574042D02*
D03*
D36*
X498085Y539549D02*
D03*
D37*
X522531D02*
D03*
D38*
X704088Y332613D02*
D03*
D39*
X615188D02*
D03*
D40*
X332740Y537464D02*
D03*
Y425704D02*
D03*
X981202D02*
D03*
X1045464Y487426D02*
D03*
D41*
X396240Y486664D02*
D03*
Y537464D02*
D03*
X332740Y486664D02*
D03*
Y374904D02*
D03*
X396240Y425704D02*
D03*
Y374904D02*
D03*
X1044702D02*
D03*
Y425704D02*
D03*
X981202Y374904D02*
D03*
X1045464Y538226D02*
D03*
X981964Y487426D02*
D03*
Y538226D02*
D03*
D42*
X807974Y395224D02*
D03*
X833628D02*
D03*
X858520D02*
D03*
X884174D02*
D03*
D43*
X832866Y473456D02*
D03*
X858266D02*
D03*
X883666D02*
D03*
D44*
X457200Y563880D02*
D03*
X914400D02*
D03*
D45*
X457200Y538480D02*
D03*
Y513080D02*
D03*
Y487680D02*
D03*
Y462280D02*
D03*
Y436880D02*
D03*
Y411480D02*
D03*
Y386080D02*
D03*
Y360680D02*
D03*
Y335280D02*
D03*
X914400D02*
D03*
Y360680D02*
D03*
Y386080D02*
D03*
Y411480D02*
D03*
Y436880D02*
D03*
Y462280D02*
D03*
Y487680D02*
D03*
Y513080D02*
D03*
Y538480D02*
D03*
D46*
X764032Y360045D02*
D03*
D47*
Y334645D02*
D03*
D48*
X1066800Y355600D02*
D03*
Y304800D02*
D03*
X1041400Y558800D02*
D03*
Y508000D02*
D03*
Y457200D02*
D03*
Y406400D02*
D03*
Y355600D02*
D03*
X1054100Y330200D02*
D03*
X1041400Y304800D02*
D03*
X1028700Y584200D02*
D03*
X1016000Y558800D02*
D03*
Y508000D02*
D03*
Y457200D02*
D03*
Y406400D02*
D03*
Y355600D02*
D03*
X1028700Y330200D02*
D03*
X1016000Y304800D02*
D03*
X1003300Y584200D02*
D03*
X990600Y558800D02*
D03*
Y508000D02*
D03*
Y457200D02*
D03*
Y355600D02*
D03*
X1003300Y330200D02*
D03*
X990600Y304800D02*
D03*
X977900Y584200D02*
D03*
X965200Y558800D02*
D03*
Y457200D02*
D03*
Y406400D02*
D03*
Y355600D02*
D03*
X977900Y330200D02*
D03*
X965200Y304800D02*
D03*
X952500Y584200D02*
D03*
X939800Y558800D02*
D03*
Y457200D02*
D03*
Y406400D02*
D03*
Y355600D02*
D03*
X952500Y330200D02*
D03*
X939800Y304800D02*
D03*
X927100Y584200D02*
D03*
Y533400D02*
D03*
Y381000D02*
D03*
Y330200D02*
D03*
X914400Y304800D02*
D03*
X901700Y584200D02*
D03*
Y533400D02*
D03*
X889000Y457200D02*
D03*
X901700Y330200D02*
D03*
X889000Y304800D02*
D03*
X876300Y584200D02*
D03*
Y381000D02*
D03*
X850900Y584200D02*
D03*
X838200Y558800D02*
D03*
Y508000D02*
D03*
Y457200D02*
D03*
X850900Y381000D02*
D03*
X838200Y355600D02*
D03*
X850900Y330200D02*
D03*
X825500Y584200D02*
D03*
Y381000D02*
D03*
X812800Y355600D02*
D03*
X825500Y330200D02*
D03*
X787400Y558800D02*
D03*
Y406400D02*
D03*
X800100Y381000D02*
D03*
X787400Y355600D02*
D03*
X800100Y330200D02*
D03*
X762000Y457200D02*
D03*
X774700Y431800D02*
D03*
Y381000D02*
D03*
X749300D02*
D03*
X698500D02*
D03*
X685800Y355600D02*
D03*
X673100Y381000D02*
D03*
X660400Y355600D02*
D03*
X647700Y381000D02*
D03*
Y330200D02*
D03*
X609600Y406400D02*
D03*
X622300Y381000D02*
D03*
X558800Y406400D02*
D03*
Y355600D02*
D03*
X508000Y406400D02*
D03*
Y355600D02*
D03*
X520700Y330200D02*
D03*
X495300Y584200D02*
D03*
Y330200D02*
D03*
X469900Y584200D02*
D03*
Y482600D02*
D03*
X444500Y584200D02*
D03*
X431800Y558800D02*
D03*
X444500Y533400D02*
D03*
Y482600D02*
D03*
X431800Y457200D02*
D03*
X444500Y431800D02*
D03*
X431800Y355600D02*
D03*
X444500Y330200D02*
D03*
X419100Y584200D02*
D03*
X406400Y558800D02*
D03*
Y457200D02*
D03*
Y355600D02*
D03*
X419100Y330200D02*
D03*
X393700Y584200D02*
D03*
X381000Y558800D02*
D03*
Y508000D02*
D03*
Y457200D02*
D03*
Y406400D02*
D03*
Y355600D02*
D03*
X393700Y330200D02*
D03*
X368300Y584200D02*
D03*
X355600Y558800D02*
D03*
Y508000D02*
D03*
Y457200D02*
D03*
Y406400D02*
D03*
Y355600D02*
D03*
X368300Y330200D02*
D03*
X330200Y508000D02*
D03*
Y457200D02*
D03*
Y406400D02*
D03*
Y355600D02*
D03*
Y304800D02*
D03*
X317500Y584200D02*
D03*
X304800Y558800D02*
D03*
X317500Y533400D02*
D03*
Y431800D02*
D03*
Y330200D02*
D03*
X304800Y304800D02*
D03*
D49*
X764540Y413769D02*
D03*
X635635Y375285D02*
D03*
X741934Y414274D02*
D03*
X523113Y455422D02*
D03*
X504952Y479044D02*
D03*
X590296Y367538D02*
D03*
X801928Y577579D02*
D03*
X531876Y393192D02*
D03*
X478790Y473202D02*
D03*
X505206Y499364D02*
D03*
X844296Y409956D02*
D03*
X858520Y422402D02*
D03*
M02*
